<mxfile host="app.diagrams.net" modified="2023-05-28T09:06:14.463Z" agent="Mozilla/5.0 (Windows NT 10.0; Win64; x64) AppleWebKit/537.36 (KHTML, like Gecko) Chrome/113.0.0.0 Safari/537.36" etag="KsDU6D09-fq0cuuYuyv4" version="21.3.4" type="device" pages="4">
  <diagram name="Highlevel" id="rlwerw1si2VV5XVi5X63">
    <mxGraphModel dx="989" dy="521" grid="1" gridSize="10" guides="1" tooltips="1" connect="1" arrows="1" fold="1" page="1" pageScale="1" pageWidth="827" pageHeight="1169" math="0" shadow="0">
      <root>
        <mxCell id="0" />
        <mxCell id="1" parent="0" />
        <mxCell id="074vVxdQkVnZmOuHKjTR-1" value="Client" style="rounded=0;whiteSpace=wrap;html=1;" parent="1" vertex="1">
          <mxGeometry x="90" y="110" width="130" height="50" as="geometry" />
        </mxCell>
        <mxCell id="pO2bUPJpNvXXwGpGhpJI-1" style="edgeStyle=orthogonalEdgeStyle;rounded=0;orthogonalLoop=1;jettySize=auto;html=1;" edge="1" parent="1" source="074vVxdQkVnZmOuHKjTR-2" target="BjpQfkhKZvlXWQ8DrUU7-1">
          <mxGeometry relative="1" as="geometry" />
        </mxCell>
        <mxCell id="074vVxdQkVnZmOuHKjTR-2" value="Server" style="rounded=0;whiteSpace=wrap;html=1;" parent="1" vertex="1">
          <mxGeometry x="320" y="110" width="130" height="50" as="geometry" />
        </mxCell>
        <mxCell id="074vVxdQkVnZmOuHKjTR-3" value="" style="endArrow=classic;startArrow=classic;html=1;rounded=0;exitX=1;exitY=0.5;exitDx=0;exitDy=0;" parent="1" source="074vVxdQkVnZmOuHKjTR-1" target="074vVxdQkVnZmOuHKjTR-2" edge="1">
          <mxGeometry width="50" height="50" relative="1" as="geometry">
            <mxPoint x="330" y="220" as="sourcePoint" />
            <mxPoint x="380" y="170" as="targetPoint" />
          </mxGeometry>
        </mxCell>
        <mxCell id="BjpQfkhKZvlXWQ8DrUU7-3" style="edgeStyle=orthogonalEdgeStyle;rounded=0;orthogonalLoop=1;jettySize=auto;html=1;entryX=0.5;entryY=1;entryDx=0;entryDy=0;" edge="1" parent="1" source="BjpQfkhKZvlXWQ8DrUU7-1" target="074vVxdQkVnZmOuHKjTR-2">
          <mxGeometry relative="1" as="geometry">
            <mxPoint x="385" y="260" as="targetPoint" />
          </mxGeometry>
        </mxCell>
        <mxCell id="BjpQfkhKZvlXWQ8DrUU7-1" value="MongoDB" style="rounded=0;whiteSpace=wrap;html=1;" vertex="1" parent="1">
          <mxGeometry x="320" y="210" width="130" height="50" as="geometry" />
        </mxCell>
      </root>
    </mxGraphModel>
  </diagram>
  <diagram id="oE6DBsneNnuvryb7yjwS" name="server">
    <mxGraphModel dx="1687" dy="889" grid="1" gridSize="10" guides="1" tooltips="1" connect="1" arrows="1" fold="1" page="1" pageScale="1" pageWidth="827" pageHeight="1169" math="0" shadow="0">
      <root>
        <mxCell id="0" />
        <mxCell id="1" parent="0" />
        <mxCell id="_ER9jhmP9V-C-dmqVoeE-3" style="edgeStyle=orthogonalEdgeStyle;rounded=0;orthogonalLoop=1;jettySize=auto;html=1;entryX=0.5;entryY=0;entryDx=0;entryDy=0;" edge="1" parent="1" source="9FWLQ7Rj-oqQZB-8tQlp-1" target="9FWLQ7Rj-oqQZB-8tQlp-3">
          <mxGeometry relative="1" as="geometry" />
        </mxCell>
        <mxCell id="9FWLQ7Rj-oqQZB-8tQlp-1" value="Request" style="rounded=0;whiteSpace=wrap;html=1;" parent="1" vertex="1">
          <mxGeometry x="40" y="20" width="120" height="50" as="geometry" />
        </mxCell>
        <mxCell id="9FWLQ7Rj-oqQZB-8tQlp-2" style="edgeStyle=orthogonalEdgeStyle;rounded=0;orthogonalLoop=1;jettySize=auto;html=1;exitX=0.5;exitY=1;exitDx=0;exitDy=0;" parent="1" source="9FWLQ7Rj-oqQZB-8tQlp-1" target="9FWLQ7Rj-oqQZB-8tQlp-1" edge="1">
          <mxGeometry relative="1" as="geometry" />
        </mxCell>
        <mxCell id="_ER9jhmP9V-C-dmqVoeE-4" style="edgeStyle=orthogonalEdgeStyle;rounded=0;orthogonalLoop=1;jettySize=auto;html=1;" edge="1" parent="1" source="9FWLQ7Rj-oqQZB-8tQlp-3" target="_ER9jhmP9V-C-dmqVoeE-1">
          <mxGeometry relative="1" as="geometry" />
        </mxCell>
        <mxCell id="9FWLQ7Rj-oqQZB-8tQlp-3" value="Check API key" style="rounded=0;whiteSpace=wrap;html=1;" parent="1" vertex="1">
          <mxGeometry x="40" y="110" width="120" height="50" as="geometry" />
        </mxCell>
        <mxCell id="_ER9jhmP9V-C-dmqVoeE-5" style="edgeStyle=orthogonalEdgeStyle;rounded=0;orthogonalLoop=1;jettySize=auto;html=1;entryX=0.5;entryY=0;entryDx=0;entryDy=0;" edge="1" parent="1" source="_ER9jhmP9V-C-dmqVoeE-1" target="_ER9jhmP9V-C-dmqVoeE-2">
          <mxGeometry relative="1" as="geometry" />
        </mxCell>
        <mxCell id="_ER9jhmP9V-C-dmqVoeE-1" value="Check Permission" style="rounded=0;whiteSpace=wrap;html=1;" vertex="1" parent="1">
          <mxGeometry x="40" y="200" width="120" height="50" as="geometry" />
        </mxCell>
        <mxCell id="_ER9jhmP9V-C-dmqVoeE-7" style="edgeStyle=orthogonalEdgeStyle;rounded=0;orthogonalLoop=1;jettySize=auto;html=1;" edge="1" parent="1" source="_ER9jhmP9V-C-dmqVoeE-2" target="_ER9jhmP9V-C-dmqVoeE-6">
          <mxGeometry relative="1" as="geometry" />
        </mxCell>
        <mxCell id="_ER9jhmP9V-C-dmqVoeE-2" value="Router&lt;br&gt;/v1/api" style="rounded=0;whiteSpace=wrap;html=1;" vertex="1" parent="1">
          <mxGeometry x="40" y="290" width="120" height="50" as="geometry" />
        </mxCell>
        <mxCell id="_ER9jhmP9V-C-dmqVoeE-10" style="edgeStyle=orthogonalEdgeStyle;rounded=0;orthogonalLoop=1;jettySize=auto;html=1;" edge="1" parent="1" source="_ER9jhmP9V-C-dmqVoeE-6" target="_ER9jhmP9V-C-dmqVoeE-8">
          <mxGeometry relative="1" as="geometry" />
        </mxCell>
        <mxCell id="_ER9jhmP9V-C-dmqVoeE-6" value="Specific router&lt;br&gt;" style="rounded=0;whiteSpace=wrap;html=1;" vertex="1" parent="1">
          <mxGeometry x="40" y="370" width="120" height="50" as="geometry" />
        </mxCell>
        <mxCell id="_ER9jhmP9V-C-dmqVoeE-11" style="edgeStyle=orthogonalEdgeStyle;rounded=0;orthogonalLoop=1;jettySize=auto;html=1;" edge="1" parent="1" source="_ER9jhmP9V-C-dmqVoeE-8" target="_ER9jhmP9V-C-dmqVoeE-9">
          <mxGeometry relative="1" as="geometry" />
        </mxCell>
        <mxCell id="_ER9jhmP9V-C-dmqVoeE-16" style="edgeStyle=orthogonalEdgeStyle;rounded=0;orthogonalLoop=1;jettySize=auto;html=1;" edge="1" parent="1" source="_ER9jhmP9V-C-dmqVoeE-8" target="_ER9jhmP9V-C-dmqVoeE-14">
          <mxGeometry relative="1" as="geometry" />
        </mxCell>
        <mxCell id="_ER9jhmP9V-C-dmqVoeE-8" value="Service" style="rounded=0;whiteSpace=wrap;html=1;" vertex="1" parent="1">
          <mxGeometry x="40" y="460" width="120" height="50" as="geometry" />
        </mxCell>
        <mxCell id="_ER9jhmP9V-C-dmqVoeE-13" style="edgeStyle=orthogonalEdgeStyle;rounded=0;orthogonalLoop=1;jettySize=auto;html=1;" edge="1" parent="1" source="_ER9jhmP9V-C-dmqVoeE-9" target="_ER9jhmP9V-C-dmqVoeE-12">
          <mxGeometry relative="1" as="geometry" />
        </mxCell>
        <mxCell id="_ER9jhmP9V-C-dmqVoeE-9" value="Controller" style="rounded=0;whiteSpace=wrap;html=1;" vertex="1" parent="1">
          <mxGeometry x="40" y="550" width="120" height="50" as="geometry" />
        </mxCell>
        <mxCell id="_ER9jhmP9V-C-dmqVoeE-12" value="Response" style="rounded=0;whiteSpace=wrap;html=1;" vertex="1" parent="1">
          <mxGeometry x="40" y="640" width="120" height="50" as="geometry" />
        </mxCell>
        <mxCell id="_ER9jhmP9V-C-dmqVoeE-17" style="edgeStyle=orthogonalEdgeStyle;rounded=0;orthogonalLoop=1;jettySize=auto;html=1;" edge="1" parent="1" source="_ER9jhmP9V-C-dmqVoeE-14" target="_ER9jhmP9V-C-dmqVoeE-15">
          <mxGeometry relative="1" as="geometry" />
        </mxCell>
        <mxCell id="_ER9jhmP9V-C-dmqVoeE-19" style="edgeStyle=orthogonalEdgeStyle;rounded=0;orthogonalLoop=1;jettySize=auto;html=1;entryX=1;entryY=0.5;entryDx=0;entryDy=0;" edge="1" parent="1" source="_ER9jhmP9V-C-dmqVoeE-14" target="_ER9jhmP9V-C-dmqVoeE-8">
          <mxGeometry relative="1" as="geometry" />
        </mxCell>
        <mxCell id="_ER9jhmP9V-C-dmqVoeE-14" value="Model" style="rounded=0;whiteSpace=wrap;html=1;" vertex="1" parent="1">
          <mxGeometry x="210" y="460" width="120" height="50" as="geometry" />
        </mxCell>
        <mxCell id="_ER9jhmP9V-C-dmqVoeE-18" style="edgeStyle=orthogonalEdgeStyle;rounded=0;orthogonalLoop=1;jettySize=auto;html=1;" edge="1" parent="1" source="_ER9jhmP9V-C-dmqVoeE-15" target="_ER9jhmP9V-C-dmqVoeE-14">
          <mxGeometry relative="1" as="geometry" />
        </mxCell>
        <mxCell id="_ER9jhmP9V-C-dmqVoeE-15" value="Database" style="rounded=0;whiteSpace=wrap;html=1;" vertex="1" parent="1">
          <mxGeometry x="210" y="540" width="120" height="50" as="geometry" />
        </mxCell>
        <mxCell id="yZLmaV1s7i_6WQ0ooes3-3" style="edgeStyle=orthogonalEdgeStyle;rounded=0;orthogonalLoop=1;jettySize=auto;html=1;" edge="1" parent="1" source="yZLmaV1s7i_6WQ0ooes3-1" target="yZLmaV1s7i_6WQ0ooes3-2">
          <mxGeometry relative="1" as="geometry" />
        </mxCell>
        <mxCell id="yZLmaV1s7i_6WQ0ooes3-1" value="Router&lt;br&gt;/v1/api" style="rounded=0;whiteSpace=wrap;html=1;" vertex="1" parent="1">
          <mxGeometry x="370" y="20" width="120" height="50" as="geometry" />
        </mxCell>
        <mxCell id="yZLmaV1s7i_6WQ0ooes3-2" value="/shop/signup" style="rounded=0;whiteSpace=wrap;html=1;" vertex="1" parent="1">
          <mxGeometry x="540" y="20" width="120" height="50" as="geometry" />
        </mxCell>
      </root>
    </mxGraphModel>
  </diagram>
  <diagram id="dr7NOn9I9hEX5I1z8Lr9" name="Service">
    <mxGraphModel dx="860" dy="889" grid="1" gridSize="10" guides="1" tooltips="1" connect="1" arrows="1" fold="1" page="1" pageScale="1" pageWidth="827" pageHeight="1169" math="0" shadow="0">
      <root>
        <mxCell id="0" />
        <mxCell id="1" parent="0" />
        <mxCell id="Rp6WelDdR_LXykCztkDV-1" style="edgeStyle=orthogonalEdgeStyle;rounded=0;orthogonalLoop=1;jettySize=auto;html=1;" edge="1" parent="1" source="Rp6WelDdR_LXykCztkDV-2" target="Rp6WelDdR_LXykCztkDV-3">
          <mxGeometry relative="1" as="geometry" />
        </mxCell>
        <mxCell id="yQ1y7mKhcKq-W4ANDy9U-4" style="edgeStyle=orthogonalEdgeStyle;rounded=0;orthogonalLoop=1;jettySize=auto;html=1;entryX=0;entryY=0.5;entryDx=0;entryDy=0;" edge="1" parent="1" source="Rp6WelDdR_LXykCztkDV-2" target="yQ1y7mKhcKq-W4ANDy9U-3">
          <mxGeometry relative="1" as="geometry" />
        </mxCell>
        <mxCell id="Rp6WelDdR_LXykCztkDV-2" value="Access Service" style="rounded=0;whiteSpace=wrap;html=1;" vertex="1" parent="1">
          <mxGeometry x="827" y="70" width="120" height="50" as="geometry" />
        </mxCell>
        <mxCell id="Rp6WelDdR_LXykCztkDV-3" value="Sign up&lt;br&gt;/shop/signup" style="rounded=0;whiteSpace=wrap;html=1;" vertex="1" parent="1">
          <mxGeometry x="990" y="70" width="120" height="50" as="geometry" />
        </mxCell>
        <mxCell id="Rp6WelDdR_LXykCztkDV-4" style="edgeStyle=orthogonalEdgeStyle;rounded=0;orthogonalLoop=1;jettySize=auto;html=1;" edge="1" parent="1" source="Rp6WelDdR_LXykCztkDV-6" target="Rp6WelDdR_LXykCztkDV-9">
          <mxGeometry relative="1" as="geometry" />
        </mxCell>
        <mxCell id="Rp6WelDdR_LXykCztkDV-5" style="edgeStyle=orthogonalEdgeStyle;rounded=0;orthogonalLoop=1;jettySize=auto;html=1;" edge="1" parent="1" source="Rp6WelDdR_LXykCztkDV-6" target="Rp6WelDdR_LXykCztkDV-11">
          <mxGeometry relative="1" as="geometry" />
        </mxCell>
        <mxCell id="Rp6WelDdR_LXykCztkDV-6" value="Is email exist?" style="rhombus;whiteSpace=wrap;html=1;" vertex="1" parent="1">
          <mxGeometry x="2000" y="230" width="100" height="90" as="geometry" />
        </mxCell>
        <mxCell id="Rp6WelDdR_LXykCztkDV-7" style="edgeStyle=orthogonalEdgeStyle;rounded=0;orthogonalLoop=1;jettySize=auto;html=1;" edge="1" parent="1" source="Rp6WelDdR_LXykCztkDV-8" target="Rp6WelDdR_LXykCztkDV-6">
          <mxGeometry relative="1" as="geometry" />
        </mxCell>
        <mxCell id="Rp6WelDdR_LXykCztkDV-8" value="DB Search" style="rounded=0;whiteSpace=wrap;html=1;" vertex="1" parent="1">
          <mxGeometry x="1990" y="160" width="120" height="50" as="geometry" />
        </mxCell>
        <mxCell id="Rp6WelDdR_LXykCztkDV-9" value="Already register" style="rounded=0;whiteSpace=wrap;html=1;" vertex="1" parent="1">
          <mxGeometry x="2150" y="250" width="120" height="50" as="geometry" />
        </mxCell>
        <mxCell id="Rp6WelDdR_LXykCztkDV-10" style="edgeStyle=orthogonalEdgeStyle;rounded=0;orthogonalLoop=1;jettySize=auto;html=1;entryX=0.5;entryY=0;entryDx=0;entryDy=0;" edge="1" parent="1" source="Rp6WelDdR_LXykCztkDV-11" target="Rp6WelDdR_LXykCztkDV-16">
          <mxGeometry relative="1" as="geometry" />
        </mxCell>
        <mxCell id="Rp6WelDdR_LXykCztkDV-11" value="Hash Password" style="rounded=0;whiteSpace=wrap;html=1;" vertex="1" parent="1">
          <mxGeometry x="1990" y="350" width="120" height="50" as="geometry" />
        </mxCell>
        <mxCell id="Rp6WelDdR_LXykCztkDV-12" value="Yes" style="text;html=1;strokeColor=none;fillColor=none;align=center;verticalAlign=middle;whiteSpace=wrap;rounded=0;" vertex="1" parent="1">
          <mxGeometry x="2090" y="250" width="60" height="30" as="geometry" />
        </mxCell>
        <mxCell id="Rp6WelDdR_LXykCztkDV-13" value="No" style="text;html=1;strokeColor=none;fillColor=none;align=center;verticalAlign=middle;whiteSpace=wrap;rounded=0;" vertex="1" parent="1">
          <mxGeometry x="2040" y="320" width="60" height="30" as="geometry" />
        </mxCell>
        <mxCell id="Rp6WelDdR_LXykCztkDV-14" style="edgeStyle=orthogonalEdgeStyle;rounded=0;orthogonalLoop=1;jettySize=auto;html=1;" edge="1" parent="1" source="Rp6WelDdR_LXykCztkDV-16" target="Rp6WelDdR_LXykCztkDV-17">
          <mxGeometry relative="1" as="geometry" />
        </mxCell>
        <mxCell id="Rp6WelDdR_LXykCztkDV-15" style="edgeStyle=orthogonalEdgeStyle;rounded=0;orthogonalLoop=1;jettySize=auto;html=1;" edge="1" parent="1" source="Rp6WelDdR_LXykCztkDV-16" target="Rp6WelDdR_LXykCztkDV-21">
          <mxGeometry relative="1" as="geometry" />
        </mxCell>
        <mxCell id="Rp6WelDdR_LXykCztkDV-16" value="Create shop in DB&amp;nbsp; success" style="rhombus;whiteSpace=wrap;html=1;" vertex="1" parent="1">
          <mxGeometry x="2000" y="430" width="100" height="90" as="geometry" />
        </mxCell>
        <mxCell id="Rp6WelDdR_LXykCztkDV-17" value="return 201 without metadata" style="rounded=0;whiteSpace=wrap;html=1;" vertex="1" parent="1">
          <mxGeometry x="2150" y="450" width="120" height="50" as="geometry" />
        </mxCell>
        <mxCell id="Rp6WelDdR_LXykCztkDV-18" value="Yes" style="text;html=1;strokeColor=none;fillColor=none;align=center;verticalAlign=middle;whiteSpace=wrap;rounded=0;" vertex="1" parent="1">
          <mxGeometry x="2040" y="520" width="60" height="30" as="geometry" />
        </mxCell>
        <mxCell id="Rp6WelDdR_LXykCztkDV-19" style="edgeStyle=orthogonalEdgeStyle;rounded=0;orthogonalLoop=1;jettySize=auto;html=1;" edge="1" parent="1" source="Rp6WelDdR_LXykCztkDV-21" target="Rp6WelDdR_LXykCztkDV-25">
          <mxGeometry relative="1" as="geometry" />
        </mxCell>
        <mxCell id="Rp6WelDdR_LXykCztkDV-20" style="edgeStyle=orthogonalEdgeStyle;rounded=0;orthogonalLoop=1;jettySize=auto;html=1;entryX=0.5;entryY=0;entryDx=0;entryDy=0;" edge="1" parent="1" source="Rp6WelDdR_LXykCztkDV-21" target="Rp6WelDdR_LXykCztkDV-30">
          <mxGeometry relative="1" as="geometry" />
        </mxCell>
        <mxCell id="Rp6WelDdR_LXykCztkDV-21" value="Create pair keys&lt;br&gt;public/private key" style="rounded=0;whiteSpace=wrap;html=1;" vertex="1" parent="1">
          <mxGeometry x="1990" y="550" width="120" height="50" as="geometry" />
        </mxCell>
        <mxCell id="Rp6WelDdR_LXykCztkDV-22" value="No" style="text;html=1;strokeColor=none;fillColor=none;align=center;verticalAlign=middle;whiteSpace=wrap;rounded=0;" vertex="1" parent="1">
          <mxGeometry x="2090" y="450" width="60" height="30" as="geometry" />
        </mxCell>
        <mxCell id="Rp6WelDdR_LXykCztkDV-23" style="edgeStyle=orthogonalEdgeStyle;rounded=0;orthogonalLoop=1;jettySize=auto;html=1;" edge="1" parent="1" source="Rp6WelDdR_LXykCztkDV-25" target="Rp6WelDdR_LXykCztkDV-21">
          <mxGeometry relative="1" as="geometry" />
        </mxCell>
        <mxCell id="Rp6WelDdR_LXykCztkDV-24" style="edgeStyle=orthogonalEdgeStyle;rounded=0;orthogonalLoop=1;jettySize=auto;html=1;" edge="1" parent="1" source="Rp6WelDdR_LXykCztkDV-25" target="Rp6WelDdR_LXykCztkDV-27">
          <mxGeometry relative="1" as="geometry" />
        </mxCell>
        <mxCell id="Rp6WelDdR_LXykCztkDV-25" value="keyToken Service" style="rounded=0;whiteSpace=wrap;html=1;" vertex="1" parent="1">
          <mxGeometry x="2150" y="550" width="120" height="50" as="geometry" />
        </mxCell>
        <mxCell id="Rp6WelDdR_LXykCztkDV-26" style="edgeStyle=orthogonalEdgeStyle;rounded=0;orthogonalLoop=1;jettySize=auto;html=1;entryX=1;entryY=0.5;entryDx=0;entryDy=0;" edge="1" parent="1" source="Rp6WelDdR_LXykCztkDV-27" target="Rp6WelDdR_LXykCztkDV-25">
          <mxGeometry relative="1" as="geometry" />
        </mxCell>
        <mxCell id="Rp6WelDdR_LXykCztkDV-27" value="Save in DB" style="rounded=0;whiteSpace=wrap;html=1;" vertex="1" parent="1">
          <mxGeometry x="2310" y="550" width="120" height="50" as="geometry" />
        </mxCell>
        <mxCell id="Rp6WelDdR_LXykCztkDV-28" style="edgeStyle=orthogonalEdgeStyle;rounded=0;orthogonalLoop=1;jettySize=auto;html=1;entryX=0;entryY=0.5;entryDx=0;entryDy=0;" edge="1" parent="1" source="Rp6WelDdR_LXykCztkDV-30" target="Rp6WelDdR_LXykCztkDV-31">
          <mxGeometry relative="1" as="geometry" />
        </mxCell>
        <mxCell id="Rp6WelDdR_LXykCztkDV-29" style="edgeStyle=orthogonalEdgeStyle;rounded=0;orthogonalLoop=1;jettySize=auto;html=1;entryX=0.5;entryY=0;entryDx=0;entryDy=0;" edge="1" parent="1" source="Rp6WelDdR_LXykCztkDV-30" target="Rp6WelDdR_LXykCztkDV-35">
          <mxGeometry relative="1" as="geometry" />
        </mxCell>
        <mxCell id="Rp6WelDdR_LXykCztkDV-30" value="Create par keys&lt;br&gt;in DB&amp;nbsp; success" style="rhombus;whiteSpace=wrap;html=1;" vertex="1" parent="1">
          <mxGeometry x="1992.5" y="640" width="115" height="95" as="geometry" />
        </mxCell>
        <mxCell id="Rp6WelDdR_LXykCztkDV-31" value="return 201 and keys error!!!" style="rounded=0;whiteSpace=wrap;html=1;" vertex="1" parent="1">
          <mxGeometry x="2150" y="662.5" width="120" height="50" as="geometry" />
        </mxCell>
        <mxCell id="Rp6WelDdR_LXykCztkDV-32" value="No" style="text;html=1;strokeColor=none;fillColor=none;align=center;verticalAlign=middle;whiteSpace=wrap;rounded=0;" vertex="1" parent="1">
          <mxGeometry x="2100" y="660" width="60" height="30" as="geometry" />
        </mxCell>
        <mxCell id="Rp6WelDdR_LXykCztkDV-33" style="edgeStyle=orthogonalEdgeStyle;rounded=0;orthogonalLoop=1;jettySize=auto;html=1;" edge="1" parent="1" source="Rp6WelDdR_LXykCztkDV-35" target="Rp6WelDdR_LXykCztkDV-38">
          <mxGeometry relative="1" as="geometry" />
        </mxCell>
        <mxCell id="Rp6WelDdR_LXykCztkDV-34" style="edgeStyle=orthogonalEdgeStyle;rounded=0;orthogonalLoop=1;jettySize=auto;html=1;entryX=0.5;entryY=0;entryDx=0;entryDy=0;" edge="1" parent="1" source="Rp6WelDdR_LXykCztkDV-35" target="Rp6WelDdR_LXykCztkDV-39">
          <mxGeometry relative="1" as="geometry">
            <mxPoint x="2047.5" y="860" as="targetPoint" />
          </mxGeometry>
        </mxCell>
        <mxCell id="Rp6WelDdR_LXykCztkDV-35" value="Create access/ refresh token" style="rounded=0;whiteSpace=wrap;html=1;" vertex="1" parent="1">
          <mxGeometry x="1990" y="770" width="120" height="50" as="geometry" />
        </mxCell>
        <mxCell id="Rp6WelDdR_LXykCztkDV-36" value="Yes" style="text;html=1;strokeColor=none;fillColor=none;align=center;verticalAlign=middle;whiteSpace=wrap;rounded=0;" vertex="1" parent="1">
          <mxGeometry x="2040" y="735" width="60" height="30" as="geometry" />
        </mxCell>
        <mxCell id="Rp6WelDdR_LXykCztkDV-37" style="edgeStyle=orthogonalEdgeStyle;rounded=0;orthogonalLoop=1;jettySize=auto;html=1;entryX=1;entryY=0.5;entryDx=0;entryDy=0;" edge="1" parent="1" source="Rp6WelDdR_LXykCztkDV-38" target="Rp6WelDdR_LXykCztkDV-35">
          <mxGeometry relative="1" as="geometry" />
        </mxCell>
        <mxCell id="Rp6WelDdR_LXykCztkDV-38" value="createTokenPair function" style="rounded=0;whiteSpace=wrap;html=1;" vertex="1" parent="1">
          <mxGeometry x="2160" y="770" width="120" height="50" as="geometry" />
        </mxCell>
        <mxCell id="Rp6WelDdR_LXykCztkDV-39" value="return&amp;nbsp;&lt;br&gt;{data, token}" style="rounded=0;whiteSpace=wrap;html=1;" vertex="1" parent="1">
          <mxGeometry x="1990" y="860" width="120" height="50" as="geometry" />
        </mxCell>
        <mxCell id="Rp6WelDdR_LXykCztkDV-40" value="" style="endArrow=none;dashed=1;html=1;dashPattern=1 3;strokeWidth=2;rounded=0;" edge="1" parent="1">
          <mxGeometry width="50" height="50" relative="1" as="geometry">
            <mxPoint x="1950" y="945" as="sourcePoint" />
            <mxPoint x="1950" y="150" as="targetPoint" />
          </mxGeometry>
        </mxCell>
        <mxCell id="Rp6WelDdR_LXykCztkDV-41" value="" style="endArrow=none;dashed=1;html=1;dashPattern=1 3;strokeWidth=2;rounded=0;" edge="1" parent="1">
          <mxGeometry width="50" height="50" relative="1" as="geometry">
            <mxPoint x="2460" y="945" as="sourcePoint" />
            <mxPoint x="2460" y="150" as="targetPoint" />
          </mxGeometry>
        </mxCell>
        <mxCell id="Rp6WelDdR_LXykCztkDV-42" value="" style="endArrow=none;dashed=1;html=1;dashPattern=1 3;strokeWidth=2;rounded=0;" edge="1" parent="1">
          <mxGeometry width="50" height="50" relative="1" as="geometry">
            <mxPoint x="1950" y="150" as="sourcePoint" />
            <mxPoint x="2460" y="150" as="targetPoint" />
          </mxGeometry>
        </mxCell>
        <mxCell id="Rp6WelDdR_LXykCztkDV-43" value="" style="endArrow=none;dashed=1;html=1;dashPattern=1 3;strokeWidth=2;rounded=0;" edge="1" parent="1">
          <mxGeometry width="50" height="50" relative="1" as="geometry">
            <mxPoint x="1955" y="950" as="sourcePoint" />
            <mxPoint x="2465" y="950" as="targetPoint" />
          </mxGeometry>
        </mxCell>
        <mxCell id="Rp6WelDdR_LXykCztkDV-44" value="&lt;font style=&quot;font-size: 15px;&quot;&gt;&lt;b&gt;Sign up Flow&lt;/b&gt;&lt;/font&gt;" style="text;html=1;strokeColor=none;fillColor=none;align=center;verticalAlign=middle;whiteSpace=wrap;rounded=0;" vertex="1" parent="1">
          <mxGeometry x="2320" y="150" width="140" height="30" as="geometry" />
        </mxCell>
        <mxCell id="yQ1y7mKhcKq-W4ANDy9U-3" value="API Keys service" style="rounded=0;whiteSpace=wrap;html=1;" vertex="1" parent="1">
          <mxGeometry x="990" width="120" height="50" as="geometry" />
        </mxCell>
        <mxCell id="yQ1y7mKhcKq-W4ANDy9U-46" style="edgeStyle=orthogonalEdgeStyle;rounded=0;orthogonalLoop=1;jettySize=auto;html=1;" edge="1" parent="1" source="yQ1y7mKhcKq-W4ANDy9U-48" target="yQ1y7mKhcKq-W4ANDy9U-51">
          <mxGeometry relative="1" as="geometry" />
        </mxCell>
        <mxCell id="yQ1y7mKhcKq-W4ANDy9U-47" style="edgeStyle=orthogonalEdgeStyle;rounded=0;orthogonalLoop=1;jettySize=auto;html=1;" edge="1" parent="1" source="yQ1y7mKhcKq-W4ANDy9U-48" target="yQ1y7mKhcKq-W4ANDy9U-53">
          <mxGeometry relative="1" as="geometry" />
        </mxCell>
        <mxCell id="yQ1y7mKhcKq-W4ANDy9U-48" value="API_KEY&amp;nbsp;exist?" style="rhombus;whiteSpace=wrap;html=1;" vertex="1" parent="1">
          <mxGeometry x="890" y="230" width="100" height="90" as="geometry" />
        </mxCell>
        <mxCell id="yQ1y7mKhcKq-W4ANDy9U-49" style="edgeStyle=orthogonalEdgeStyle;rounded=0;orthogonalLoop=1;jettySize=auto;html=1;" edge="1" parent="1" source="yQ1y7mKhcKq-W4ANDy9U-50" target="yQ1y7mKhcKq-W4ANDy9U-48">
          <mxGeometry relative="1" as="geometry" />
        </mxCell>
        <mxCell id="yQ1y7mKhcKq-W4ANDy9U-50" value="Get key from Header&lt;br&gt;&quot;API_KEY&lt;span style=&quot;background-color: initial;&quot;&gt;&quot;&lt;/span&gt;" style="rounded=0;whiteSpace=wrap;html=1;" vertex="1" parent="1">
          <mxGeometry x="880" y="160" width="120" height="50" as="geometry" />
        </mxCell>
        <mxCell id="yQ1y7mKhcKq-W4ANDy9U-51" value="return Forbidden Error" style="rounded=0;whiteSpace=wrap;html=1;" vertex="1" parent="1">
          <mxGeometry x="1030" y="250" width="120" height="50" as="geometry" />
        </mxCell>
        <mxCell id="yQ1y7mKhcKq-W4ANDy9U-52" style="edgeStyle=orthogonalEdgeStyle;rounded=0;orthogonalLoop=1;jettySize=auto;html=1;entryX=0.5;entryY=0;entryDx=0;entryDy=0;" edge="1" parent="1" source="yQ1y7mKhcKq-W4ANDy9U-53" target="yQ1y7mKhcKq-W4ANDy9U-58">
          <mxGeometry relative="1" as="geometry" />
        </mxCell>
        <mxCell id="yQ1y7mKhcKq-W4ANDy9U-88" style="edgeStyle=orthogonalEdgeStyle;rounded=0;orthogonalLoop=1;jettySize=auto;html=1;entryX=0;entryY=0.5;entryDx=0;entryDy=0;" edge="1" parent="1" source="yQ1y7mKhcKq-W4ANDy9U-53" target="yQ1y7mKhcKq-W4ANDy9U-87">
          <mxGeometry relative="1" as="geometry" />
        </mxCell>
        <mxCell id="yQ1y7mKhcKq-W4ANDy9U-53" value="Check objectKey" style="rounded=0;whiteSpace=wrap;html=1;" vertex="1" parent="1">
          <mxGeometry x="880" y="350" width="120" height="50" as="geometry" />
        </mxCell>
        <mxCell id="yQ1y7mKhcKq-W4ANDy9U-54" value="Yes" style="text;html=1;strokeColor=none;fillColor=none;align=center;verticalAlign=middle;whiteSpace=wrap;rounded=0;" vertex="1" parent="1">
          <mxGeometry x="935" y="320" width="60" height="30" as="geometry" />
        </mxCell>
        <mxCell id="yQ1y7mKhcKq-W4ANDy9U-55" value="No" style="text;html=1;strokeColor=none;fillColor=none;align=center;verticalAlign=middle;whiteSpace=wrap;rounded=0;" vertex="1" parent="1">
          <mxGeometry x="980" y="250" width="60" height="30" as="geometry" />
        </mxCell>
        <mxCell id="yQ1y7mKhcKq-W4ANDy9U-56" style="edgeStyle=orthogonalEdgeStyle;rounded=0;orthogonalLoop=1;jettySize=auto;html=1;" edge="1" parent="1" source="yQ1y7mKhcKq-W4ANDy9U-58" target="yQ1y7mKhcKq-W4ANDy9U-59">
          <mxGeometry relative="1" as="geometry" />
        </mxCell>
        <mxCell id="yQ1y7mKhcKq-W4ANDy9U-57" style="edgeStyle=orthogonalEdgeStyle;rounded=0;orthogonalLoop=1;jettySize=auto;html=1;" edge="1" parent="1" source="yQ1y7mKhcKq-W4ANDy9U-58" target="yQ1y7mKhcKq-W4ANDy9U-63">
          <mxGeometry relative="1" as="geometry" />
        </mxCell>
        <mxCell id="yQ1y7mKhcKq-W4ANDy9U-58" value="objectKey exist?" style="rhombus;whiteSpace=wrap;html=1;" vertex="1" parent="1">
          <mxGeometry x="890" y="430" width="100" height="90" as="geometry" />
        </mxCell>
        <mxCell id="yQ1y7mKhcKq-W4ANDy9U-59" value="return Forbidden Error" style="rounded=0;whiteSpace=wrap;html=1;" vertex="1" parent="1">
          <mxGeometry x="1040" y="450" width="120" height="50" as="geometry" />
        </mxCell>
        <mxCell id="yQ1y7mKhcKq-W4ANDy9U-60" value="Yes" style="text;html=1;strokeColor=none;fillColor=none;align=center;verticalAlign=middle;whiteSpace=wrap;rounded=0;" vertex="1" parent="1">
          <mxGeometry x="930" y="520" width="60" height="30" as="geometry" />
        </mxCell>
        <mxCell id="yQ1y7mKhcKq-W4ANDy9U-62" style="edgeStyle=orthogonalEdgeStyle;rounded=0;orthogonalLoop=1;jettySize=auto;html=1;entryX=0.5;entryY=0;entryDx=0;entryDy=0;" edge="1" parent="1" source="yQ1y7mKhcKq-W4ANDy9U-63" target="yQ1y7mKhcKq-W4ANDy9U-73">
          <mxGeometry relative="1" as="geometry">
            <mxPoint x="940" y="640" as="targetPoint" />
          </mxGeometry>
        </mxCell>
        <mxCell id="yQ1y7mKhcKq-W4ANDy9U-63" value="assign&lt;br&gt;req.objKey = obtKey" style="rounded=0;whiteSpace=wrap;html=1;" vertex="1" parent="1">
          <mxGeometry x="880" y="550" width="120" height="50" as="geometry" />
        </mxCell>
        <mxCell id="yQ1y7mKhcKq-W4ANDy9U-64" value="No" style="text;html=1;strokeColor=none;fillColor=none;align=center;verticalAlign=middle;whiteSpace=wrap;rounded=0;" vertex="1" parent="1">
          <mxGeometry x="980" y="450" width="60" height="30" as="geometry" />
        </mxCell>
        <mxCell id="yQ1y7mKhcKq-W4ANDy9U-73" value="return next()" style="rounded=0;whiteSpace=wrap;html=1;" vertex="1" parent="1">
          <mxGeometry x="880" y="640" width="120" height="50" as="geometry" />
        </mxCell>
        <mxCell id="yQ1y7mKhcKq-W4ANDy9U-82" value="" style="endArrow=none;dashed=1;html=1;dashPattern=1 3;strokeWidth=2;rounded=0;" edge="1" parent="1">
          <mxGeometry width="50" height="50" relative="1" as="geometry">
            <mxPoint x="840" y="945" as="sourcePoint" />
            <mxPoint x="840" y="150" as="targetPoint" />
          </mxGeometry>
        </mxCell>
        <mxCell id="yQ1y7mKhcKq-W4ANDy9U-83" value="" style="endArrow=none;dashed=1;html=1;dashPattern=1 3;strokeWidth=2;rounded=0;" edge="1" parent="1">
          <mxGeometry width="50" height="50" relative="1" as="geometry">
            <mxPoint x="1350" y="945" as="sourcePoint" />
            <mxPoint x="1350" y="150" as="targetPoint" />
          </mxGeometry>
        </mxCell>
        <mxCell id="yQ1y7mKhcKq-W4ANDy9U-84" value="" style="endArrow=none;dashed=1;html=1;dashPattern=1 3;strokeWidth=2;rounded=0;" edge="1" parent="1">
          <mxGeometry width="50" height="50" relative="1" as="geometry">
            <mxPoint x="840" y="150" as="sourcePoint" />
            <mxPoint x="1350" y="150" as="targetPoint" />
          </mxGeometry>
        </mxCell>
        <mxCell id="yQ1y7mKhcKq-W4ANDy9U-85" value="" style="endArrow=none;dashed=1;html=1;dashPattern=1 3;strokeWidth=2;rounded=0;" edge="1" parent="1">
          <mxGeometry width="50" height="50" relative="1" as="geometry">
            <mxPoint x="845" y="950" as="sourcePoint" />
            <mxPoint x="1355" y="950" as="targetPoint" />
          </mxGeometry>
        </mxCell>
        <mxCell id="yQ1y7mKhcKq-W4ANDy9U-86" value="&lt;font style=&quot;font-size: 15px;&quot;&gt;&lt;b&gt;API Key Flow&lt;/b&gt;&lt;/font&gt;" style="text;html=1;strokeColor=none;fillColor=none;align=center;verticalAlign=middle;whiteSpace=wrap;rounded=0;" vertex="1" parent="1">
          <mxGeometry x="1210" y="150" width="130" height="30" as="geometry" />
        </mxCell>
        <mxCell id="yQ1y7mKhcKq-W4ANDy9U-89" style="edgeStyle=orthogonalEdgeStyle;rounded=0;orthogonalLoop=1;jettySize=auto;html=1;" edge="1" parent="1" source="yQ1y7mKhcKq-W4ANDy9U-87" target="yQ1y7mKhcKq-W4ANDy9U-53">
          <mxGeometry relative="1" as="geometry" />
        </mxCell>
        <mxCell id="yQ1y7mKhcKq-W4ANDy9U-87" value="Key Model&lt;br&gt;DB" style="rounded=0;whiteSpace=wrap;html=1;" vertex="1" parent="1">
          <mxGeometry x="1040" y="350" width="120" height="50" as="geometry" />
        </mxCell>
        <mxCell id="yQ1y7mKhcKq-W4ANDy9U-119" style="edgeStyle=orthogonalEdgeStyle;rounded=0;orthogonalLoop=1;jettySize=auto;html=1;" edge="1" parent="1" source="yQ1y7mKhcKq-W4ANDy9U-121" target="yQ1y7mKhcKq-W4ANDy9U-124">
          <mxGeometry relative="1" as="geometry" />
        </mxCell>
        <mxCell id="yQ1y7mKhcKq-W4ANDy9U-120" style="edgeStyle=orthogonalEdgeStyle;rounded=0;orthogonalLoop=1;jettySize=auto;html=1;entryX=0.5;entryY=0;entryDx=0;entryDy=0;" edge="1" parent="1" source="yQ1y7mKhcKq-W4ANDy9U-121" target="yQ1y7mKhcKq-W4ANDy9U-137">
          <mxGeometry relative="1" as="geometry">
            <mxPoint x="1490" y="360" as="targetPoint" />
          </mxGeometry>
        </mxCell>
        <mxCell id="yQ1y7mKhcKq-W4ANDy9U-121" value="permissions is&amp;nbsp;&lt;br&gt;included in&amp;nbsp;&lt;br&gt;objKey" style="rhombus;whiteSpace=wrap;html=1;" vertex="1" parent="1">
          <mxGeometry x="1435" y="235" width="110" height="100" as="geometry" />
        </mxCell>
        <mxCell id="yQ1y7mKhcKq-W4ANDy9U-122" style="edgeStyle=orthogonalEdgeStyle;rounded=0;orthogonalLoop=1;jettySize=auto;html=1;" edge="1" parent="1" source="yQ1y7mKhcKq-W4ANDy9U-123" target="yQ1y7mKhcKq-W4ANDy9U-121">
          <mxGeometry relative="1" as="geometry" />
        </mxCell>
        <mxCell id="yQ1y7mKhcKq-W4ANDy9U-123" value="Set permission" style="rounded=0;whiteSpace=wrap;html=1;" vertex="1" parent="1">
          <mxGeometry x="1430" y="160" width="120" height="50" as="geometry" />
        </mxCell>
        <mxCell id="yQ1y7mKhcKq-W4ANDy9U-124" value="return &quot;Permission Denied!!&quot;" style="rounded=0;whiteSpace=wrap;html=1;" vertex="1" parent="1">
          <mxGeometry x="1590" y="260" width="120" height="50" as="geometry" />
        </mxCell>
        <mxCell id="yQ1y7mKhcKq-W4ANDy9U-125" value="Yes" style="text;html=1;strokeColor=none;fillColor=none;align=center;verticalAlign=middle;whiteSpace=wrap;rounded=0;" vertex="1" parent="1">
          <mxGeometry x="1485" y="320" width="60" height="30" as="geometry" />
        </mxCell>
        <mxCell id="yQ1y7mKhcKq-W4ANDy9U-126" value="No" style="text;html=1;strokeColor=none;fillColor=none;align=center;verticalAlign=middle;whiteSpace=wrap;rounded=0;" vertex="1" parent="1">
          <mxGeometry x="1530" y="250" width="60" height="30" as="geometry" />
        </mxCell>
        <mxCell id="yQ1y7mKhcKq-W4ANDy9U-127" value="return &quot;Permission Denied!!&quot;" style="rounded=0;whiteSpace=wrap;html=1;" vertex="1" parent="1">
          <mxGeometry x="1590" y="405" width="120" height="50" as="geometry" />
        </mxCell>
        <mxCell id="yQ1y7mKhcKq-W4ANDy9U-128" style="edgeStyle=orthogonalEdgeStyle;rounded=0;orthogonalLoop=1;jettySize=auto;html=1;entryX=0.5;entryY=0;entryDx=0;entryDy=0;exitX=0.5;exitY=1;exitDx=0;exitDy=0;" edge="1" parent="1" source="yQ1y7mKhcKq-W4ANDy9U-137" target="yQ1y7mKhcKq-W4ANDy9U-130">
          <mxGeometry relative="1" as="geometry">
            <mxPoint x="1490" y="640" as="targetPoint" />
            <mxPoint x="1490" y="600" as="sourcePoint" />
          </mxGeometry>
        </mxCell>
        <mxCell id="yQ1y7mKhcKq-W4ANDy9U-129" value="No" style="text;html=1;strokeColor=none;fillColor=none;align=center;verticalAlign=middle;whiteSpace=wrap;rounded=0;" vertex="1" parent="1">
          <mxGeometry x="1540" y="400" width="60" height="30" as="geometry" />
        </mxCell>
        <mxCell id="yQ1y7mKhcKq-W4ANDy9U-130" value="return next()" style="rounded=0;whiteSpace=wrap;html=1;" vertex="1" parent="1">
          <mxGeometry x="1430" y="520" width="120" height="50" as="geometry" />
        </mxCell>
        <mxCell id="yQ1y7mKhcKq-W4ANDy9U-131" value="" style="endArrow=none;dashed=1;html=1;dashPattern=1 3;strokeWidth=2;rounded=0;" edge="1" parent="1">
          <mxGeometry width="50" height="50" relative="1" as="geometry">
            <mxPoint x="1390" y="945" as="sourcePoint" />
            <mxPoint x="1390" y="150" as="targetPoint" />
          </mxGeometry>
        </mxCell>
        <mxCell id="yQ1y7mKhcKq-W4ANDy9U-132" value="" style="endArrow=none;dashed=1;html=1;dashPattern=1 3;strokeWidth=2;rounded=0;" edge="1" parent="1">
          <mxGeometry width="50" height="50" relative="1" as="geometry">
            <mxPoint x="1900" y="945" as="sourcePoint" />
            <mxPoint x="1900" y="150" as="targetPoint" />
          </mxGeometry>
        </mxCell>
        <mxCell id="yQ1y7mKhcKq-W4ANDy9U-133" value="" style="endArrow=none;dashed=1;html=1;dashPattern=1 3;strokeWidth=2;rounded=0;" edge="1" parent="1">
          <mxGeometry width="50" height="50" relative="1" as="geometry">
            <mxPoint x="1390" y="150" as="sourcePoint" />
            <mxPoint x="1900" y="150" as="targetPoint" />
          </mxGeometry>
        </mxCell>
        <mxCell id="yQ1y7mKhcKq-W4ANDy9U-134" value="" style="endArrow=none;dashed=1;html=1;dashPattern=1 3;strokeWidth=2;rounded=0;" edge="1" parent="1">
          <mxGeometry width="50" height="50" relative="1" as="geometry">
            <mxPoint x="1395" y="950" as="sourcePoint" />
            <mxPoint x="1905" y="950" as="targetPoint" />
          </mxGeometry>
        </mxCell>
        <mxCell id="yQ1y7mKhcKq-W4ANDy9U-135" value="&lt;font style=&quot;font-size: 15px;&quot;&gt;&lt;b&gt;permisions Flow&lt;/b&gt;&lt;/font&gt;" style="text;html=1;strokeColor=none;fillColor=none;align=center;verticalAlign=middle;whiteSpace=wrap;rounded=0;" vertex="1" parent="1">
          <mxGeometry x="1750" y="150" width="140" height="30" as="geometry" />
        </mxCell>
        <mxCell id="yQ1y7mKhcKq-W4ANDy9U-136" style="edgeStyle=orthogonalEdgeStyle;rounded=0;orthogonalLoop=1;jettySize=auto;html=1;" edge="1" parent="1" source="yQ1y7mKhcKq-W4ANDy9U-137" target="yQ1y7mKhcKq-W4ANDy9U-127">
          <mxGeometry relative="1" as="geometry" />
        </mxCell>
        <mxCell id="yQ1y7mKhcKq-W4ANDy9U-137" value="set-permission is&lt;br&gt;in account permissions" style="rhombus;whiteSpace=wrap;html=1;" vertex="1" parent="1">
          <mxGeometry x="1417.5" y="370" width="145" height="120" as="geometry" />
        </mxCell>
      </root>
    </mxGraphModel>
  </diagram>
  <diagram id="m-0nsYyTe_izuBY532l9" name="Models">
    <mxGraphModel dx="989" dy="521" grid="1" gridSize="10" guides="1" tooltips="1" connect="1" arrows="1" fold="1" page="1" pageScale="1" pageWidth="827" pageHeight="1169" math="0" shadow="0">
      <root>
        <mxCell id="0" />
        <mxCell id="1" parent="0" />
        <mxCell id="CQ-uS1shebG8MOPe_b7Q-12" value="shopSchema" style="shape=table;startSize=30;container=1;collapsible=0;childLayout=tableLayout;fixedRows=1;rowLines=0;fontStyle=0;strokeColor=default;fontSize=16;" vertex="1" parent="1">
          <mxGeometry x="250" y="40" width="180" height="240" as="geometry" />
        </mxCell>
        <mxCell id="CQ-uS1shebG8MOPe_b7Q-13" value="" style="shape=tableRow;horizontal=0;startSize=0;swimlaneHead=0;swimlaneBody=0;top=0;left=0;bottom=0;right=0;collapsible=0;dropTarget=0;fillColor=none;points=[[0,0.5],[1,0.5]];portConstraint=eastwest;strokeColor=inherit;fontSize=16;" vertex="1" parent="CQ-uS1shebG8MOPe_b7Q-12">
          <mxGeometry y="30" width="180" height="30" as="geometry" />
        </mxCell>
        <mxCell id="CQ-uS1shebG8MOPe_b7Q-14" value="1" style="shape=partialRectangle;html=1;whiteSpace=wrap;connectable=0;fillColor=none;top=0;left=0;bottom=0;right=0;overflow=hidden;pointerEvents=1;strokeColor=inherit;fontSize=16;" vertex="1" parent="CQ-uS1shebG8MOPe_b7Q-13">
          <mxGeometry width="40" height="30" as="geometry">
            <mxRectangle width="40" height="30" as="alternateBounds" />
          </mxGeometry>
        </mxCell>
        <mxCell id="CQ-uS1shebG8MOPe_b7Q-15" value="id" style="shape=partialRectangle;html=1;whiteSpace=wrap;connectable=0;fillColor=none;top=0;left=0;bottom=0;right=0;align=left;spacingLeft=6;overflow=hidden;strokeColor=inherit;fontSize=16;" vertex="1" parent="CQ-uS1shebG8MOPe_b7Q-13">
          <mxGeometry x="40" width="140" height="30" as="geometry">
            <mxRectangle width="140" height="30" as="alternateBounds" />
          </mxGeometry>
        </mxCell>
        <mxCell id="CQ-uS1shebG8MOPe_b7Q-74" value="" style="shape=tableRow;horizontal=0;startSize=0;swimlaneHead=0;swimlaneBody=0;top=0;left=0;bottom=0;right=0;collapsible=0;dropTarget=0;fillColor=none;points=[[0,0.5],[1,0.5]];portConstraint=eastwest;strokeColor=inherit;fontSize=16;" vertex="1" parent="CQ-uS1shebG8MOPe_b7Q-12">
          <mxGeometry y="60" width="180" height="30" as="geometry" />
        </mxCell>
        <mxCell id="CQ-uS1shebG8MOPe_b7Q-75" value="2" style="shape=partialRectangle;html=1;whiteSpace=wrap;connectable=0;fillColor=none;top=0;left=0;bottom=0;right=0;overflow=hidden;pointerEvents=1;strokeColor=inherit;fontSize=16;" vertex="1" parent="CQ-uS1shebG8MOPe_b7Q-74">
          <mxGeometry width="40" height="30" as="geometry">
            <mxRectangle width="40" height="30" as="alternateBounds" />
          </mxGeometry>
        </mxCell>
        <mxCell id="CQ-uS1shebG8MOPe_b7Q-76" value="name" style="shape=partialRectangle;html=1;whiteSpace=wrap;connectable=0;fillColor=none;top=0;left=0;bottom=0;right=0;align=left;spacingLeft=6;overflow=hidden;strokeColor=inherit;fontSize=16;" vertex="1" parent="CQ-uS1shebG8MOPe_b7Q-74">
          <mxGeometry x="40" width="140" height="30" as="geometry">
            <mxRectangle width="140" height="30" as="alternateBounds" />
          </mxGeometry>
        </mxCell>
        <mxCell id="CQ-uS1shebG8MOPe_b7Q-16" value="" style="shape=tableRow;horizontal=0;startSize=0;swimlaneHead=0;swimlaneBody=0;top=0;left=0;bottom=0;right=0;collapsible=0;dropTarget=0;fillColor=none;points=[[0,0.5],[1,0.5]];portConstraint=eastwest;strokeColor=inherit;fontSize=16;" vertex="1" parent="CQ-uS1shebG8MOPe_b7Q-12">
          <mxGeometry y="90" width="180" height="30" as="geometry" />
        </mxCell>
        <mxCell id="CQ-uS1shebG8MOPe_b7Q-17" value="3" style="shape=partialRectangle;html=1;whiteSpace=wrap;connectable=0;fillColor=none;top=0;left=0;bottom=0;right=0;overflow=hidden;strokeColor=inherit;fontSize=16;" vertex="1" parent="CQ-uS1shebG8MOPe_b7Q-16">
          <mxGeometry width="40" height="30" as="geometry">
            <mxRectangle width="40" height="30" as="alternateBounds" />
          </mxGeometry>
        </mxCell>
        <mxCell id="CQ-uS1shebG8MOPe_b7Q-18" value="email" style="shape=partialRectangle;html=1;whiteSpace=wrap;connectable=0;fillColor=none;top=0;left=0;bottom=0;right=0;align=left;spacingLeft=6;overflow=hidden;strokeColor=inherit;fontSize=16;" vertex="1" parent="CQ-uS1shebG8MOPe_b7Q-16">
          <mxGeometry x="40" width="140" height="30" as="geometry">
            <mxRectangle width="140" height="30" as="alternateBounds" />
          </mxGeometry>
        </mxCell>
        <mxCell id="CQ-uS1shebG8MOPe_b7Q-19" value="" style="shape=tableRow;horizontal=0;startSize=0;swimlaneHead=0;swimlaneBody=0;top=0;left=0;bottom=0;right=0;collapsible=0;dropTarget=0;fillColor=none;points=[[0,0.5],[1,0.5]];portConstraint=eastwest;strokeColor=inherit;fontSize=16;" vertex="1" parent="CQ-uS1shebG8MOPe_b7Q-12">
          <mxGeometry y="120" width="180" height="30" as="geometry" />
        </mxCell>
        <mxCell id="CQ-uS1shebG8MOPe_b7Q-20" value="4" style="shape=partialRectangle;html=1;whiteSpace=wrap;connectable=0;fillColor=none;top=0;left=0;bottom=0;right=0;overflow=hidden;strokeColor=inherit;fontSize=16;" vertex="1" parent="CQ-uS1shebG8MOPe_b7Q-19">
          <mxGeometry width="40" height="30" as="geometry">
            <mxRectangle width="40" height="30" as="alternateBounds" />
          </mxGeometry>
        </mxCell>
        <mxCell id="CQ-uS1shebG8MOPe_b7Q-21" value="password" style="shape=partialRectangle;html=1;whiteSpace=wrap;connectable=0;fillColor=none;top=0;left=0;bottom=0;right=0;align=left;spacingLeft=6;overflow=hidden;strokeColor=inherit;fontSize=16;" vertex="1" parent="CQ-uS1shebG8MOPe_b7Q-19">
          <mxGeometry x="40" width="140" height="30" as="geometry">
            <mxRectangle width="140" height="30" as="alternateBounds" />
          </mxGeometry>
        </mxCell>
        <mxCell id="CQ-uS1shebG8MOPe_b7Q-25" value="" style="shape=tableRow;horizontal=0;startSize=0;swimlaneHead=0;swimlaneBody=0;top=0;left=0;bottom=0;right=0;collapsible=0;dropTarget=0;fillColor=none;points=[[0,0.5],[1,0.5]];portConstraint=eastwest;strokeColor=inherit;fontSize=16;" vertex="1" parent="CQ-uS1shebG8MOPe_b7Q-12">
          <mxGeometry y="150" width="180" height="30" as="geometry" />
        </mxCell>
        <mxCell id="CQ-uS1shebG8MOPe_b7Q-26" value="5" style="shape=partialRectangle;html=1;whiteSpace=wrap;connectable=0;fillColor=none;top=0;left=0;bottom=0;right=0;overflow=hidden;strokeColor=inherit;fontSize=16;" vertex="1" parent="CQ-uS1shebG8MOPe_b7Q-25">
          <mxGeometry width="40" height="30" as="geometry">
            <mxRectangle width="40" height="30" as="alternateBounds" />
          </mxGeometry>
        </mxCell>
        <mxCell id="CQ-uS1shebG8MOPe_b7Q-27" value="status" style="shape=partialRectangle;html=1;whiteSpace=wrap;connectable=0;fillColor=none;top=0;left=0;bottom=0;right=0;align=left;spacingLeft=6;overflow=hidden;strokeColor=inherit;fontSize=16;" vertex="1" parent="CQ-uS1shebG8MOPe_b7Q-25">
          <mxGeometry x="40" width="140" height="30" as="geometry">
            <mxRectangle width="140" height="30" as="alternateBounds" />
          </mxGeometry>
        </mxCell>
        <mxCell id="CQ-uS1shebG8MOPe_b7Q-28" value="" style="shape=tableRow;horizontal=0;startSize=0;swimlaneHead=0;swimlaneBody=0;top=0;left=0;bottom=0;right=0;collapsible=0;dropTarget=0;fillColor=none;points=[[0,0.5],[1,0.5]];portConstraint=eastwest;strokeColor=inherit;fontSize=16;" vertex="1" parent="CQ-uS1shebG8MOPe_b7Q-12">
          <mxGeometry y="180" width="180" height="30" as="geometry" />
        </mxCell>
        <mxCell id="CQ-uS1shebG8MOPe_b7Q-29" value="6" style="shape=partialRectangle;html=1;whiteSpace=wrap;connectable=0;fillColor=none;top=0;left=0;bottom=0;right=0;overflow=hidden;strokeColor=inherit;fontSize=16;" vertex="1" parent="CQ-uS1shebG8MOPe_b7Q-28">
          <mxGeometry width="40" height="30" as="geometry">
            <mxRectangle width="40" height="30" as="alternateBounds" />
          </mxGeometry>
        </mxCell>
        <mxCell id="CQ-uS1shebG8MOPe_b7Q-30" value="verify" style="shape=partialRectangle;html=1;whiteSpace=wrap;connectable=0;fillColor=none;top=0;left=0;bottom=0;right=0;align=left;spacingLeft=6;overflow=hidden;strokeColor=inherit;fontSize=16;" vertex="1" parent="CQ-uS1shebG8MOPe_b7Q-28">
          <mxGeometry x="40" width="140" height="30" as="geometry">
            <mxRectangle width="140" height="30" as="alternateBounds" />
          </mxGeometry>
        </mxCell>
        <mxCell id="CQ-uS1shebG8MOPe_b7Q-31" value="" style="shape=tableRow;horizontal=0;startSize=0;swimlaneHead=0;swimlaneBody=0;top=0;left=0;bottom=0;right=0;collapsible=0;dropTarget=0;fillColor=none;points=[[0,0.5],[1,0.5]];portConstraint=eastwest;strokeColor=inherit;fontSize=16;" vertex="1" parent="CQ-uS1shebG8MOPe_b7Q-12">
          <mxGeometry y="210" width="180" height="30" as="geometry" />
        </mxCell>
        <mxCell id="CQ-uS1shebG8MOPe_b7Q-32" value="7" style="shape=partialRectangle;html=1;whiteSpace=wrap;connectable=0;fillColor=none;top=0;left=0;bottom=0;right=0;overflow=hidden;strokeColor=inherit;fontSize=16;" vertex="1" parent="CQ-uS1shebG8MOPe_b7Q-31">
          <mxGeometry width="40" height="30" as="geometry">
            <mxRectangle width="40" height="30" as="alternateBounds" />
          </mxGeometry>
        </mxCell>
        <mxCell id="CQ-uS1shebG8MOPe_b7Q-33" value="roles" style="shape=partialRectangle;html=1;whiteSpace=wrap;connectable=0;fillColor=none;top=0;left=0;bottom=0;right=0;align=left;spacingLeft=6;overflow=hidden;strokeColor=inherit;fontSize=16;" vertex="1" parent="CQ-uS1shebG8MOPe_b7Q-31">
          <mxGeometry x="40" width="140" height="30" as="geometry">
            <mxRectangle width="140" height="30" as="alternateBounds" />
          </mxGeometry>
        </mxCell>
        <mxCell id="CQ-uS1shebG8MOPe_b7Q-53" value="ApiKey" style="shape=table;startSize=30;container=1;collapsible=0;childLayout=tableLayout;fixedRows=1;rowLines=0;fontStyle=0;strokeColor=default;fontSize=16;" vertex="1" parent="1">
          <mxGeometry x="20" y="40" width="180" height="120" as="geometry" />
        </mxCell>
        <mxCell id="CQ-uS1shebG8MOPe_b7Q-54" value="" style="shape=tableRow;horizontal=0;startSize=0;swimlaneHead=0;swimlaneBody=0;top=0;left=0;bottom=0;right=0;collapsible=0;dropTarget=0;fillColor=none;points=[[0,0.5],[1,0.5]];portConstraint=eastwest;strokeColor=inherit;fontSize=16;" vertex="1" parent="CQ-uS1shebG8MOPe_b7Q-53">
          <mxGeometry y="30" width="180" height="30" as="geometry" />
        </mxCell>
        <mxCell id="CQ-uS1shebG8MOPe_b7Q-55" value="1" style="shape=partialRectangle;html=1;whiteSpace=wrap;connectable=0;fillColor=none;top=0;left=0;bottom=0;right=0;overflow=hidden;pointerEvents=1;strokeColor=inherit;fontSize=16;" vertex="1" parent="CQ-uS1shebG8MOPe_b7Q-54">
          <mxGeometry width="40" height="30" as="geometry">
            <mxRectangle width="40" height="30" as="alternateBounds" />
          </mxGeometry>
        </mxCell>
        <mxCell id="CQ-uS1shebG8MOPe_b7Q-56" value="key" style="shape=partialRectangle;html=1;whiteSpace=wrap;connectable=0;fillColor=none;top=0;left=0;bottom=0;right=0;align=left;spacingLeft=6;overflow=hidden;strokeColor=inherit;fontSize=16;" vertex="1" parent="CQ-uS1shebG8MOPe_b7Q-54">
          <mxGeometry x="40" width="140" height="30" as="geometry">
            <mxRectangle width="140" height="30" as="alternateBounds" />
          </mxGeometry>
        </mxCell>
        <mxCell id="CQ-uS1shebG8MOPe_b7Q-57" value="" style="shape=tableRow;horizontal=0;startSize=0;swimlaneHead=0;swimlaneBody=0;top=0;left=0;bottom=0;right=0;collapsible=0;dropTarget=0;fillColor=none;points=[[0,0.5],[1,0.5]];portConstraint=eastwest;strokeColor=inherit;fontSize=16;" vertex="1" parent="CQ-uS1shebG8MOPe_b7Q-53">
          <mxGeometry y="60" width="180" height="30" as="geometry" />
        </mxCell>
        <mxCell id="CQ-uS1shebG8MOPe_b7Q-58" value="2" style="shape=partialRectangle;html=1;whiteSpace=wrap;connectable=0;fillColor=none;top=0;left=0;bottom=0;right=0;overflow=hidden;strokeColor=inherit;fontSize=16;" vertex="1" parent="CQ-uS1shebG8MOPe_b7Q-57">
          <mxGeometry width="40" height="30" as="geometry">
            <mxRectangle width="40" height="30" as="alternateBounds" />
          </mxGeometry>
        </mxCell>
        <mxCell id="CQ-uS1shebG8MOPe_b7Q-59" value="status" style="shape=partialRectangle;html=1;whiteSpace=wrap;connectable=0;fillColor=none;top=0;left=0;bottom=0;right=0;align=left;spacingLeft=6;overflow=hidden;strokeColor=inherit;fontSize=16;" vertex="1" parent="CQ-uS1shebG8MOPe_b7Q-57">
          <mxGeometry x="40" width="140" height="30" as="geometry">
            <mxRectangle width="140" height="30" as="alternateBounds" />
          </mxGeometry>
        </mxCell>
        <mxCell id="CQ-uS1shebG8MOPe_b7Q-60" value="" style="shape=tableRow;horizontal=0;startSize=0;swimlaneHead=0;swimlaneBody=0;top=0;left=0;bottom=0;right=0;collapsible=0;dropTarget=0;fillColor=none;points=[[0,0.5],[1,0.5]];portConstraint=eastwest;strokeColor=inherit;fontSize=16;" vertex="1" parent="CQ-uS1shebG8MOPe_b7Q-53">
          <mxGeometry y="90" width="180" height="30" as="geometry" />
        </mxCell>
        <mxCell id="CQ-uS1shebG8MOPe_b7Q-61" value="3" style="shape=partialRectangle;html=1;whiteSpace=wrap;connectable=0;fillColor=none;top=0;left=0;bottom=0;right=0;overflow=hidden;strokeColor=inherit;fontSize=16;" vertex="1" parent="CQ-uS1shebG8MOPe_b7Q-60">
          <mxGeometry width="40" height="30" as="geometry">
            <mxRectangle width="40" height="30" as="alternateBounds" />
          </mxGeometry>
        </mxCell>
        <mxCell id="CQ-uS1shebG8MOPe_b7Q-62" value="permissions" style="shape=partialRectangle;html=1;whiteSpace=wrap;connectable=0;fillColor=none;top=0;left=0;bottom=0;right=0;align=left;spacingLeft=6;overflow=hidden;strokeColor=inherit;fontSize=16;" vertex="1" parent="CQ-uS1shebG8MOPe_b7Q-60">
          <mxGeometry x="40" width="140" height="30" as="geometry">
            <mxRectangle width="140" height="30" as="alternateBounds" />
          </mxGeometry>
        </mxCell>
        <mxCell id="CQ-uS1shebG8MOPe_b7Q-63" value="keyToken" style="shape=table;startSize=30;container=1;collapsible=0;childLayout=tableLayout;fixedRows=1;rowLines=0;fontStyle=0;strokeColor=default;fontSize=16;" vertex="1" parent="1">
          <mxGeometry x="490" y="40" width="180" height="150" as="geometry" />
        </mxCell>
        <mxCell id="CQ-uS1shebG8MOPe_b7Q-64" value="" style="shape=tableRow;horizontal=0;startSize=0;swimlaneHead=0;swimlaneBody=0;top=0;left=0;bottom=0;right=0;collapsible=0;dropTarget=0;fillColor=none;points=[[0,0.5],[1,0.5]];portConstraint=eastwest;strokeColor=inherit;fontSize=16;" vertex="1" parent="CQ-uS1shebG8MOPe_b7Q-63">
          <mxGeometry y="30" width="180" height="30" as="geometry" />
        </mxCell>
        <mxCell id="CQ-uS1shebG8MOPe_b7Q-65" value="1" style="shape=partialRectangle;html=1;whiteSpace=wrap;connectable=0;fillColor=none;top=0;left=0;bottom=0;right=0;overflow=hidden;pointerEvents=1;strokeColor=inherit;fontSize=16;" vertex="1" parent="CQ-uS1shebG8MOPe_b7Q-64">
          <mxGeometry width="40" height="30" as="geometry">
            <mxRectangle width="40" height="30" as="alternateBounds" />
          </mxGeometry>
        </mxCell>
        <mxCell id="CQ-uS1shebG8MOPe_b7Q-66" value="user" style="shape=partialRectangle;html=1;whiteSpace=wrap;connectable=0;fillColor=none;top=0;left=0;bottom=0;right=0;align=left;spacingLeft=6;overflow=hidden;strokeColor=inherit;fontSize=16;" vertex="1" parent="CQ-uS1shebG8MOPe_b7Q-64">
          <mxGeometry x="40" width="140" height="30" as="geometry">
            <mxRectangle width="140" height="30" as="alternateBounds" />
          </mxGeometry>
        </mxCell>
        <mxCell id="CQ-uS1shebG8MOPe_b7Q-67" value="" style="shape=tableRow;horizontal=0;startSize=0;swimlaneHead=0;swimlaneBody=0;top=0;left=0;bottom=0;right=0;collapsible=0;dropTarget=0;fillColor=none;points=[[0,0.5],[1,0.5]];portConstraint=eastwest;strokeColor=inherit;fontSize=16;" vertex="1" parent="CQ-uS1shebG8MOPe_b7Q-63">
          <mxGeometry y="60" width="180" height="30" as="geometry" />
        </mxCell>
        <mxCell id="CQ-uS1shebG8MOPe_b7Q-68" value="2" style="shape=partialRectangle;html=1;whiteSpace=wrap;connectable=0;fillColor=none;top=0;left=0;bottom=0;right=0;overflow=hidden;strokeColor=inherit;fontSize=16;" vertex="1" parent="CQ-uS1shebG8MOPe_b7Q-67">
          <mxGeometry width="40" height="30" as="geometry">
            <mxRectangle width="40" height="30" as="alternateBounds" />
          </mxGeometry>
        </mxCell>
        <mxCell id="CQ-uS1shebG8MOPe_b7Q-69" value="publicKey" style="shape=partialRectangle;html=1;whiteSpace=wrap;connectable=0;fillColor=none;top=0;left=0;bottom=0;right=0;align=left;spacingLeft=6;overflow=hidden;strokeColor=inherit;fontSize=16;" vertex="1" parent="CQ-uS1shebG8MOPe_b7Q-67">
          <mxGeometry x="40" width="140" height="30" as="geometry">
            <mxRectangle width="140" height="30" as="alternateBounds" />
          </mxGeometry>
        </mxCell>
        <mxCell id="CQ-uS1shebG8MOPe_b7Q-70" value="" style="shape=tableRow;horizontal=0;startSize=0;swimlaneHead=0;swimlaneBody=0;top=0;left=0;bottom=0;right=0;collapsible=0;dropTarget=0;fillColor=none;points=[[0,0.5],[1,0.5]];portConstraint=eastwest;strokeColor=inherit;fontSize=16;" vertex="1" parent="CQ-uS1shebG8MOPe_b7Q-63">
          <mxGeometry y="90" width="180" height="30" as="geometry" />
        </mxCell>
        <mxCell id="CQ-uS1shebG8MOPe_b7Q-71" value="3" style="shape=partialRectangle;html=1;whiteSpace=wrap;connectable=0;fillColor=none;top=0;left=0;bottom=0;right=0;overflow=hidden;strokeColor=inherit;fontSize=16;" vertex="1" parent="CQ-uS1shebG8MOPe_b7Q-70">
          <mxGeometry width="40" height="30" as="geometry">
            <mxRectangle width="40" height="30" as="alternateBounds" />
          </mxGeometry>
        </mxCell>
        <mxCell id="CQ-uS1shebG8MOPe_b7Q-72" value="privateKey" style="shape=partialRectangle;html=1;whiteSpace=wrap;connectable=0;fillColor=none;top=0;left=0;bottom=0;right=0;align=left;spacingLeft=6;overflow=hidden;strokeColor=inherit;fontSize=16;" vertex="1" parent="CQ-uS1shebG8MOPe_b7Q-70">
          <mxGeometry x="40" width="140" height="30" as="geometry">
            <mxRectangle width="140" height="30" as="alternateBounds" />
          </mxGeometry>
        </mxCell>
        <mxCell id="CQ-uS1shebG8MOPe_b7Q-78" value="" style="shape=tableRow;horizontal=0;startSize=0;swimlaneHead=0;swimlaneBody=0;top=0;left=0;bottom=0;right=0;collapsible=0;dropTarget=0;fillColor=none;points=[[0,0.5],[1,0.5]];portConstraint=eastwest;strokeColor=inherit;fontSize=16;" vertex="1" parent="CQ-uS1shebG8MOPe_b7Q-63">
          <mxGeometry y="120" width="180" height="30" as="geometry" />
        </mxCell>
        <mxCell id="CQ-uS1shebG8MOPe_b7Q-79" value="4" style="shape=partialRectangle;html=1;whiteSpace=wrap;connectable=0;fillColor=none;top=0;left=0;bottom=0;right=0;overflow=hidden;strokeColor=inherit;fontSize=16;" vertex="1" parent="CQ-uS1shebG8MOPe_b7Q-78">
          <mxGeometry width="40" height="30" as="geometry">
            <mxRectangle width="40" height="30" as="alternateBounds" />
          </mxGeometry>
        </mxCell>
        <mxCell id="CQ-uS1shebG8MOPe_b7Q-80" value="refreshtoken" style="shape=partialRectangle;html=1;whiteSpace=wrap;connectable=0;fillColor=none;top=0;left=0;bottom=0;right=0;align=left;spacingLeft=6;overflow=hidden;strokeColor=inherit;fontSize=16;" vertex="1" parent="CQ-uS1shebG8MOPe_b7Q-78">
          <mxGeometry x="40" width="140" height="30" as="geometry">
            <mxRectangle width="140" height="30" as="alternateBounds" />
          </mxGeometry>
        </mxCell>
        <mxCell id="CQ-uS1shebG8MOPe_b7Q-77" style="edgeStyle=orthogonalEdgeStyle;rounded=0;orthogonalLoop=1;jettySize=auto;html=1;" edge="1" parent="1" source="CQ-uS1shebG8MOPe_b7Q-64" target="CQ-uS1shebG8MOPe_b7Q-13">
          <mxGeometry relative="1" as="geometry" />
        </mxCell>
      </root>
    </mxGraphModel>
  </diagram>
</mxfile>
